<svg width="115" height="75" viewBox="0 0 115 75" fill="none" xmlns="http://www.w3.org/2000/svg">
<path fill-rule="evenodd" clip-rule="evenodd" d="M66.7768 12.0197C66.8967 12.1901 66.9998 12.3737 67.0839 12.5686C72.0438 13.9067 75.6952 18.3349 75.6952 23.5771C75.6952 29.8757 70.4243 35 63.9455 35C60.563 35 57.5104 33.6028 55.3646 31.3715H47.2193C45.4662 31.3715 44.04 29.9849 44.04 28.2806C44.04 27.3018 44.5109 26.4283 45.2436 25.8616C44.5109 25.2949 44.04 24.4215 44.04 23.4426C44.04 22.4638 44.5109 21.5904 45.2436 21.0237C44.5109 20.457 44.04 19.5835 44.04 18.6047C44.04 17.6259 44.5109 16.7525 45.2436 16.1857C44.5109 15.619 44.04 14.7456 44.04 13.7668C44.04 12.0625 45.4662 10.6759 47.2193 10.6759H49.0218C48.6699 10.1785 48.4634 9.57679 48.4634 8.92884C48.4634 8.28089 48.67 7.67917 49.0218 7.18181H43.487C41.734 7.18181 40.3077 5.7952 40.3077 4.0909C40.3077 2.38661 41.734 1 43.487 1H60.4205C62.1735 1 63.5998 2.38661 63.5998 4.0909C63.5998 4.73885 63.3932 5.34057 63.0413 5.83794H68.5762C70.3292 5.83794 71.7555 7.22454 71.7555 8.92884C71.7555 10.6331 70.3292 12.0197 68.5762 12.0197H66.7768ZM70.3732 8.92884C70.3732 7.96555 69.5671 7.18181 68.5762 7.18181H51.6427C50.6518 7.18181 49.8457 7.96555 49.8457 8.92884C49.8457 9.89213 50.6518 10.6759 51.6427 10.6759H64.1527H68.5762C69.5671 10.6759 70.3732 9.89213 70.3732 8.92884ZM41.69 4.0909C41.69 5.05419 42.4961 5.83794 43.487 5.83794H60.4205C61.4114 5.83794 62.2175 5.05419 62.2175 4.0909C62.2175 3.12762 61.4114 2.34387 60.4205 2.34387H43.487C42.4961 2.34387 41.69 3.12762 41.69 4.0909ZM64.1527 12.0197H47.2193C46.2285 12.0197 45.4223 12.8035 45.4223 13.7668C45.4223 14.7301 46.2285 15.5138 47.2193 15.5138H55.6309C57.7592 13.4395 60.7008 12.1542 63.9455 12.1542C64.2794 12.1542 64.6099 12.1686 64.9369 12.1953C64.6977 12.0826 64.4311 12.0197 64.1527 12.0197ZM54.4499 16.8577H47.2193C46.2284 16.8577 45.4223 17.6414 45.4223 18.6047C45.4223 19.5681 46.2284 20.3517 47.2193 20.3517H52.6734C53.0586 19.0814 53.6653 17.9027 54.4499 16.8577ZM52.356 21.6956H47.2193C46.2284 21.6956 45.4223 22.4793 45.4223 23.4426C45.4223 24.406 46.2284 25.1897 47.2193 25.1897H52.3134C52.2364 24.6627 52.1957 24.1245 52.1957 23.5771C52.1957 22.9363 52.2512 22.3079 52.356 21.6956ZM45.4223 28.2806C45.4223 29.2439 46.2284 30.0276 47.2193 30.0276H54.2539C53.5109 28.9758 52.9443 27.7977 52.5956 26.5335H47.2193C46.2284 26.5335 45.4223 27.3172 45.4223 28.2806ZM53.578 23.5771C53.578 29.1347 58.2289 33.6561 63.9455 33.6561C69.662 33.6561 74.3129 29.1347 74.3129 23.5771C74.3129 18.0195 69.662 13.4981 63.9455 13.4981C58.2289 13.4981 53.578 18.0195 53.578 23.5771ZM62.1824 21.2802C62.1824 22.0967 62.9718 22.7609 63.9421 22.7609C65.7945 22.7609 67.3016 24.1228 67.3016 25.7969C67.3016 27.2219 66.2094 28.42 64.742 28.7452V29.0811C64.742 29.5105 64.3838 29.8588 63.9421 29.8588C63.5005 29.8588 63.1423 29.5105 63.1423 29.0811V28.7452C61.6748 28.42 60.5827 27.2219 60.5827 25.7969C60.5827 25.3675 60.9409 25.0193 61.3826 25.0193C61.8243 25.0193 62.1824 25.3675 62.1824 25.7969C62.1824 26.6134 62.9718 27.2776 63.9421 27.2776C64.9125 27.2776 65.7018 26.6134 65.7018 25.7969C65.7018 24.9804 64.9125 24.3161 63.9421 24.3161C62.0897 24.3161 60.5827 22.9542 60.5827 21.2802C60.5827 19.8553 61.6748 18.6571 63.1423 18.3319V17.9275C63.1423 17.4981 63.5005 17.1499 63.9421 17.1499C64.3838 17.1499 64.742 17.4981 64.742 17.9275V18.3319C66.2094 18.6571 67.3016 19.8553 67.3016 21.2802C67.3016 21.7096 66.9434 22.0579 66.5017 22.0579C66.06 22.0579 65.7018 21.7096 65.7018 21.2802C65.7018 20.4637 64.9125 19.7995 63.9421 19.7995C62.9718 19.7995 62.1824 20.4637 62.1824 21.2802Z" fill="#FF872C"/>
<path d="M67.0839 12.5686L66.8543 12.6677L66.9022 12.7785L67.0188 12.8099L67.0839 12.5686ZM66.7768 12.0197V11.7697H66.2951L66.5724 12.1637L66.7768 12.0197ZM55.3646 31.3715L55.5448 31.1982L55.4711 31.1215H55.3646V31.3715ZM45.2436 25.8616L45.3966 26.0594L45.6522 25.8616L45.3966 25.6639L45.2436 25.8616ZM45.2436 21.0237L45.3966 21.2214L45.6522 21.0237L45.3966 20.8259L45.2436 21.0237ZM45.2436 16.1857L45.3966 16.3835L45.6522 16.1857L45.3966 15.988L45.2436 16.1857ZM49.0218 10.6759V10.9259H49.505L49.2259 10.5315L49.0218 10.6759ZM49.0218 7.18181L49.2259 7.32619L49.5049 6.93181H49.0218V7.18181ZM63.0413 5.83794L62.8373 5.69355L62.5582 6.08794H63.0413V5.83794ZM55.6309 15.5138V15.7638H55.7325L55.8053 15.6928L55.6309 15.5138ZM64.9369 12.1953L64.9165 12.4444L65.0434 11.9691L64.9369 12.1953ZM54.4499 16.8577L54.6498 17.0078L54.9502 16.6077H54.4499V16.8577ZM52.6734 20.3517V20.6017H52.8588L52.9126 20.4243L52.6734 20.3517ZM52.356 21.6956L52.6024 21.7378L52.6524 21.4456H52.356V21.6956ZM52.3134 25.1897V25.4397H52.6025L52.5607 25.1536L52.3134 25.1897ZM54.2539 30.0276V30.2776H54.7365L54.4581 29.8834L54.2539 30.0276ZM52.5956 26.5335L52.8366 26.4671L52.7859 26.2835H52.5956V26.5335ZM64.742 28.7452L64.6879 28.5011L64.492 28.5445V28.7452H64.742ZM63.1423 28.7452H63.3923V28.5445L63.1964 28.5011L63.1423 28.7452ZM63.1423 18.3319L63.1964 18.576L63.3923 18.5326V18.3319H63.1423ZM64.742 18.3319H64.492V18.5326L64.6879 18.576L64.742 18.3319ZM67.3134 12.4695C67.2225 12.2589 67.111 12.0602 66.9812 11.8758L66.5724 12.1637C66.6824 12.3199 66.777 12.4886 66.8543 12.6677L67.3134 12.4695ZM75.9452 23.5771C75.9452 18.2145 72.2107 13.6928 67.149 12.3272L67.0188 12.8099C71.8768 14.1206 75.4452 18.4552 75.4452 23.5771H75.9452ZM63.9455 35.25C70.5556 35.25 75.9452 30.0204 75.9452 23.5771H75.4452C75.4452 29.731 70.2929 34.75 63.9455 34.75V35.25ZM55.1844 31.5448C57.376 33.8237 60.4931 35.25 63.9455 35.25V34.75C60.6329 34.75 57.6448 33.3819 55.5448 31.1982L55.1844 31.5448ZM47.2193 31.6215H55.3646V31.1215H47.2193V31.6215ZM43.79 28.2806C43.79 30.1295 45.3349 31.6215 47.2193 31.6215V31.1215C45.5976 31.1215 44.29 29.8402 44.29 28.2806H43.79ZM45.0907 25.6639C44.301 26.2746 43.79 27.2192 43.79 28.2806H44.29C44.29 27.3844 44.7208 26.582 45.3966 26.0594L45.0907 25.6639ZM43.79 23.4426C43.79 24.5041 44.301 25.4486 45.0907 26.0594L45.3966 25.6639C44.7208 25.1412 44.29 24.3388 44.29 23.4426H43.79ZM45.0907 20.8259C44.301 21.4367 43.79 22.3812 43.79 23.4426H44.29C44.29 22.5465 44.7208 21.7441 45.3966 21.2214L45.0907 20.8259ZM43.79 18.6047C43.79 19.6661 44.301 20.6107 45.0907 21.2214L45.3966 20.8259C44.7208 20.3033 44.29 19.5009 44.29 18.6047H43.79ZM45.0907 15.988C44.301 16.5987 43.79 17.5433 43.79 18.6047H44.29C44.29 17.7085 44.7208 16.9062 45.3966 16.3835L45.0907 15.988ZM43.79 13.7668C43.79 14.8282 44.301 15.7727 45.0907 16.3835L45.3966 15.988C44.7208 15.4653 44.29 14.663 44.29 13.7668H43.79ZM47.2193 10.4259C45.3349 10.4259 43.79 11.9178 43.79 13.7668H44.29C44.29 12.2071 45.5976 10.9259 47.2193 10.9259V10.4259ZM49.0218 10.4259H47.2193V10.9259H49.0218V10.4259ZM48.2134 8.92884C48.2134 9.63092 48.4374 10.2827 48.8178 10.8203L49.2259 10.5315C48.9024 10.0743 48.7134 9.52265 48.7134 8.92884H48.2134ZM48.8178 7.03742C48.4375 7.57498 48.2134 8.22674 48.2134 8.92884H48.7134C48.7134 8.33504 48.9025 7.78337 49.2259 7.32619L48.8178 7.03742ZM43.487 7.43181H49.0218V6.93181H43.487V7.43181ZM40.0577 4.0909C40.0577 5.93987 41.6026 7.43181 43.487 7.43181V6.93181C41.8653 6.93181 40.5577 5.65053 40.5577 4.0909H40.0577ZM43.487 0.75C41.6026 0.75 40.0577 2.24193 40.0577 4.0909H40.5577C40.5577 2.53128 41.8653 1.25 43.487 1.25V0.75ZM60.4205 0.75H43.487V1.25H60.4205V0.75ZM63.8498 4.0909C63.8498 2.24193 62.3049 0.75 60.4205 0.75V1.25C62.0421 1.25 63.3498 2.53128 63.3498 4.0909H63.8498ZM63.2454 5.98232C63.6257 5.44476 63.8498 4.793 63.8498 4.0909H63.3498C63.3498 4.6847 63.1607 5.23637 62.8373 5.69355L63.2454 5.98232ZM68.5762 5.58794H63.0413V6.08794H68.5762V5.58794ZM72.0055 8.92884C72.0055 7.07987 70.4606 5.58794 68.5762 5.58794V6.08794C70.1978 6.08794 71.5055 7.36921 71.5055 8.92884H72.0055ZM68.5762 12.2697C70.4606 12.2697 72.0055 10.7778 72.0055 8.92884H71.5055C71.5055 10.4885 70.1978 11.7697 68.5762 11.7697V12.2697ZM66.7768 12.2697H68.5762V11.7697H66.7768V12.2697ZM68.5762 7.43181C69.4357 7.43181 70.1232 8.11022 70.1232 8.92884H70.6232C70.6232 7.82089 69.6985 6.93181 68.5762 6.93181V7.43181ZM51.6427 7.43181H68.5762V6.93181H51.6427V7.43181ZM50.0957 8.92884C50.0957 8.11022 50.7832 7.43181 51.6427 7.43181V6.93181C50.5204 6.93181 49.5957 7.82089 49.5957 8.92884H50.0957ZM51.6427 10.4259C50.7832 10.4259 50.0957 9.74746 50.0957 8.92884H49.5957C49.5957 10.0368 50.5204 10.9259 51.6427 10.9259V10.4259ZM64.1527 10.4259H51.6427V10.9259H64.1527V10.4259ZM68.5762 10.4259H64.1527V10.9259H68.5762V10.4259ZM70.1232 8.92884C70.1232 9.74746 69.4357 10.4259 68.5762 10.4259V10.9259C69.6985 10.9259 70.6232 10.0368 70.6232 8.92884H70.1232ZM43.487 5.58794C42.6275 5.58794 41.94 4.90952 41.94 4.0909H41.44C41.44 5.19886 42.3647 6.08794 43.487 6.08794V5.58794ZM60.4205 5.58794H43.487V6.08794H60.4205V5.58794ZM61.9675 4.0909C61.9675 4.90952 61.28 5.58794 60.4205 5.58794V6.08794C61.5428 6.08794 62.4675 5.19886 62.4675 4.0909H61.9675ZM60.4205 2.59387C61.28 2.59387 61.9675 3.27228 61.9675 4.0909H62.4675C62.4675 2.98295 61.5428 2.09387 60.4205 2.09387V2.59387ZM43.487 2.59387H60.4205V2.09387H43.487V2.59387ZM41.94 4.0909C41.94 3.27228 42.6275 2.59387 43.487 2.59387V2.09387C42.3647 2.09387 41.44 2.98295 41.44 4.0909H41.94ZM47.2193 12.2697H64.1527V11.7697H47.2193V12.2697ZM45.6723 13.7668C45.6723 12.9482 46.3598 12.2697 47.2193 12.2697V11.7697C46.0971 11.7697 45.1723 12.6588 45.1723 13.7668H45.6723ZM47.2193 15.2638C46.3598 15.2638 45.6723 14.5854 45.6723 13.7668H45.1723C45.1723 14.8747 46.0971 15.7638 47.2193 15.7638V15.2638ZM55.6309 15.2638H47.2193V15.7638H55.6309V15.2638ZM63.9455 11.9042C60.6338 11.9042 57.6301 13.2163 55.4564 15.3348L55.8053 15.6928C57.8883 13.6628 60.7678 12.4042 63.9455 12.4042V11.9042ZM64.9572 11.9461C64.6239 11.9189 64.2866 11.9042 63.9455 11.9042V12.4042C64.2722 12.4042 64.596 12.4183 64.9165 12.4444L64.9572 11.9461ZM64.1527 12.2697C64.3933 12.2697 64.6236 12.3241 64.8303 12.4214L65.0434 11.9691C64.7719 11.8412 64.469 11.7697 64.1527 11.7697V12.2697ZM47.2193 17.1077H54.4499V16.6077H47.2193V17.1077ZM45.6723 18.6047C45.6723 17.7861 46.3598 17.1077 47.2193 17.1077V16.6077C46.097 16.6077 45.1723 17.4968 45.1723 18.6047H45.6723ZM47.2193 20.1017C46.3598 20.1017 45.6723 19.4234 45.6723 18.6047H45.1723C45.1723 19.7127 46.097 20.6017 47.2193 20.6017V20.1017ZM52.6734 20.1017H47.2193V20.6017H52.6734V20.1017ZM54.2499 16.7076C53.4483 17.7753 52.8281 18.9802 52.4341 20.2792L52.9126 20.4243C53.2892 19.1827 53.8822 18.0301 54.6498 17.0078L54.2499 16.7076ZM47.2193 21.9456H52.356V21.4456H47.2193V21.9456ZM45.6723 23.4426C45.6723 22.624 46.3598 21.9456 47.2193 21.9456V21.4456C46.097 21.4456 45.1723 22.3346 45.1723 23.4426H45.6723ZM47.2193 24.9397C46.3598 24.9397 45.6723 24.2613 45.6723 23.4426H45.1723C45.1723 24.5507 46.097 25.4397 47.2193 25.4397V24.9397ZM52.3134 24.9397H47.2193V25.4397H52.3134V24.9397ZM51.9457 23.5771C51.9457 24.1369 51.9874 24.6872 52.066 25.2258L52.5607 25.1536C52.4855 24.6382 52.4457 24.112 52.4457 23.5771H51.9457ZM52.1096 21.6534C52.0024 22.2794 51.9457 22.9218 51.9457 23.5771H52.4457C52.4457 22.9507 52.4999 22.3365 52.6024 21.7378L52.1096 21.6534ZM47.2193 29.7776C46.3598 29.7776 45.6723 29.0993 45.6723 28.2806H45.1723C45.1723 29.3886 46.097 30.2776 47.2193 30.2776V29.7776ZM54.2539 29.7776H47.2193V30.2776H54.2539V29.7776ZM52.3546 26.6C52.7112 27.8927 53.2905 29.0971 54.0497 30.1718L54.4581 29.8834C53.7313 28.8545 53.1774 27.7026 52.8366 26.4671L52.3546 26.6ZM47.2193 26.7835H52.5956V26.2835H47.2193V26.7835ZM45.6723 28.2806C45.6723 27.4619 46.3598 26.7835 47.2193 26.7835V26.2835C46.097 26.2835 45.1723 27.1726 45.1723 28.2806H45.6723ZM63.9455 33.4061C58.3602 33.4061 53.828 28.99 53.828 23.5771H53.328C53.328 29.2794 58.0975 33.9061 63.9455 33.9061V33.4061ZM74.0629 23.5771C74.0629 28.99 69.5307 33.4061 63.9455 33.4061V33.9061C69.7934 33.9061 74.5629 29.2794 74.5629 23.5771H74.0629ZM63.9455 13.7481C69.5307 13.7481 74.0629 18.1642 74.0629 23.5771H74.5629C74.5629 17.8748 69.7934 13.2481 63.9455 13.2481V13.7481ZM53.828 23.5771C53.828 18.1642 58.3602 13.7481 63.9455 13.7481V13.2481C58.0975 13.2481 53.328 17.8748 53.328 23.5771H53.828ZM63.9421 22.5109C63.0677 22.5109 62.4324 21.9199 62.4324 21.2802H61.9324C61.9324 22.2734 62.8759 23.0109 63.9421 23.0109V22.5109ZM67.5516 25.7969C67.5516 23.9615 65.9082 22.5109 63.9421 22.5109V23.0109C65.6809 23.0109 67.0516 24.2841 67.0516 25.7969H67.5516ZM64.7961 28.9893C66.3584 28.6431 67.5516 27.358 67.5516 25.7969H67.0516C67.0516 27.0857 66.0605 28.197 64.6879 28.5011L64.7961 28.9893ZM64.992 29.0811V28.7452H64.492V29.0811H64.992ZM63.9421 30.1088C64.5152 30.1088 64.992 29.6552 64.992 29.0811H64.492C64.492 29.3659 64.2524 29.6088 63.9421 29.6088V30.1088ZM62.8923 29.0811C62.8923 29.6552 63.3691 30.1088 63.9421 30.1088V29.6088C63.6318 29.6088 63.3923 29.3659 63.3923 29.0811H62.8923ZM62.8923 28.7452V29.0811H63.3923V28.7452H62.8923ZM60.3327 25.7969C60.3327 27.358 61.5259 28.6431 63.0882 28.9893L63.1964 28.5011C61.8238 28.197 60.8327 27.0857 60.8327 25.7969H60.3327ZM61.3826 24.7693C60.8095 24.7693 60.3327 25.2228 60.3327 25.7969H60.8327C60.8327 25.5121 61.0723 25.2693 61.3826 25.2693V24.7693ZM62.4324 25.7969C62.4324 25.2228 61.9556 24.7693 61.3826 24.7693V25.2693C61.6929 25.2693 61.9324 25.5121 61.9324 25.7969H62.4324ZM63.9421 27.0276C63.0677 27.0276 62.4324 26.4366 62.4324 25.7969H61.9324C61.9324 26.7901 62.8759 27.5276 63.9421 27.5276V27.0276ZM65.4518 25.7969C65.4518 26.4366 64.8166 27.0276 63.9421 27.0276V27.5276C65.0084 27.5276 65.9518 26.7901 65.9518 25.7969H65.4518ZM63.9421 24.5661C64.8166 24.5661 65.4518 25.1571 65.4518 25.7969H65.9518C65.9518 24.8036 65.0084 24.0661 63.9421 24.0661V24.5661ZM60.3327 21.2802C60.3327 23.1155 61.9761 24.5661 63.9421 24.5661V24.0661C62.2034 24.0661 60.8327 22.7929 60.8327 21.2802H60.3327ZM63.0882 18.0878C61.5259 18.4341 60.3327 19.7191 60.3327 21.2802H60.8327C60.8327 19.9915 61.8238 18.8802 63.1964 18.576L63.0882 18.0878ZM62.8923 17.9275V18.3319H63.3923V17.9275H62.8923ZM63.9421 16.8999C63.3691 16.8999 62.8923 17.3534 62.8923 17.9275H63.3923C63.3923 17.6427 63.6318 17.3999 63.9421 17.3999V16.8999ZM64.992 17.9275C64.992 17.3534 64.5152 16.8999 63.9421 16.8999V17.3999C64.2524 17.3999 64.492 17.6427 64.492 17.9275H64.992ZM64.992 18.3319V17.9275H64.492V18.3319H64.992ZM67.5516 21.2802C67.5516 19.7191 66.3584 18.4341 64.7961 18.0878L64.6879 18.576C66.0605 18.8802 67.0516 19.9915 67.0516 21.2802H67.5516ZM66.5017 22.3079C67.0748 22.3079 67.5516 21.8543 67.5516 21.2802H67.0516C67.0516 21.565 66.812 21.8079 66.5017 21.8079V22.3079ZM65.4518 21.2802C65.4518 21.8543 65.9286 22.3079 66.5017 22.3079V21.8079C66.1914 21.8079 65.9518 21.565 65.9518 21.2802H65.4518ZM63.9421 20.0495C64.8166 20.0495 65.4518 20.6405 65.4518 21.2802H65.9518C65.9518 20.287 65.0084 19.5495 63.9421 19.5495V20.0495ZM62.4324 21.2802C62.4324 20.6405 63.0677 20.0495 63.9421 20.0495V19.5495C62.8759 19.5495 61.9324 20.287 61.9324 21.2802H62.4324Z" fill="#FF872C"/>
<path d="M8.5625 66.27C7.2625 66.27 6.0925 66.04 5.0525 65.58C4.0325 65.1 3.2225 64.46 2.6225 63.66C2.0225 62.84 1.7025 61.93 1.6625 60.93H5.2025C5.2625 61.63 5.5925 62.22 6.1925 62.7C6.8125 63.16 7.5825 63.39 8.5025 63.39C9.4625 63.39 10.2025 63.21 10.7225 62.85C11.2625 62.47 11.5325 61.99 11.5325 61.41C11.5325 60.79 11.2325 60.33 10.6325 60.03C10.0525 59.73 9.1225 59.4 7.8425 59.04C6.6025 58.7 5.5925 58.37 4.8125 58.05C4.0325 57.73 3.3525 57.24 2.7725 56.58C2.2125 55.92 1.9325 55.05 1.9325 53.97C1.9325 53.09 2.1925 52.29 2.7125 51.57C3.2325 50.83 3.9725 50.25 4.9325 49.83C5.9125 49.41 7.0325 49.2 8.2925 49.2C10.1725 49.2 11.6825 49.68 12.8225 50.64C13.9825 51.58 14.6025 52.87 14.6825 54.51H11.2625C11.2025 53.77 10.9025 53.18 10.3625 52.74C9.8225 52.3 9.0925 52.08 8.1725 52.08C7.2725 52.08 6.5825 52.25 6.1025 52.59C5.6225 52.93 5.3825 53.38 5.3825 53.94C5.3825 54.38 5.5425 54.75 5.8625 55.05C6.1825 55.35 6.5725 55.59 7.0325 55.77C7.4925 55.93 8.1725 56.14 9.0725 56.4C10.2725 56.72 11.2525 57.05 12.0125 57.39C12.7925 57.71 13.4625 58.19 14.0225 58.83C14.5825 59.47 14.8725 60.32 14.8925 61.38C14.8925 62.32 14.6325 63.16 14.1125 63.9C13.5925 64.64 12.8525 65.22 11.8925 65.64C10.9525 66.06 9.8425 66.27 8.5625 66.27ZM17.4479 57.66C17.4479 56 17.7879 54.53 18.4679 53.25C19.1679 51.97 20.1079 50.98 21.2879 50.28C22.4879 49.56 23.8079 49.2 25.2479 49.2C26.5479 49.2 27.6779 49.46 28.6379 49.98C29.6179 50.48 30.3979 51.11 30.9779 51.87V49.47H34.4279V66H30.9779V63.54C30.3979 64.32 29.6079 64.97 28.6079 65.49C27.6079 66.01 26.4679 66.27 25.1879 66.27C23.7679 66.27 22.4679 65.91 21.2879 65.19C20.1079 64.45 19.1679 63.43 18.4679 62.13C17.7879 60.81 17.4479 59.32 17.4479 57.66ZM30.9779 57.72C30.9779 56.58 30.7379 55.59 30.2579 54.75C29.7979 53.91 29.1879 53.27 28.4279 52.83C27.6679 52.39 26.8479 52.17 25.9679 52.17C25.0879 52.17 24.2679 52.39 23.5079 52.83C22.7479 53.25 22.1279 53.88 21.6479 54.72C21.1879 55.54 20.9579 56.52 20.9579 57.66C20.9579 58.8 21.1879 59.8 21.6479 60.66C22.1279 61.52 22.7479 62.18 23.5079 62.64C24.2879 63.08 25.1079 63.3 25.9679 63.3C26.8479 63.3 27.6679 63.08 28.4279 62.64C29.1879 62.2 29.7979 61.56 30.2579 60.72C30.7379 59.86 30.9779 58.86 30.9779 57.72ZM42.3399 43.8V66H38.9199V43.8H42.3399ZM61.9801 57.33C61.9801 57.95 61.9401 58.51 61.8601 59.01H49.2301C49.3301 60.33 49.8201 61.39 50.7001 62.19C51.5801 62.99 52.6601 63.39 53.9401 63.39C55.7801 63.39 57.0801 62.62 57.8401 61.08H61.5301C61.0301 62.6 60.1201 63.85 58.8001 64.83C57.5001 65.79 55.8801 66.27 53.9401 66.27C52.3601 66.27 50.9401 65.92 49.6801 65.22C48.4401 64.5 47.4601 63.5 46.7401 62.22C46.0401 60.92 45.6901 59.42 45.6901 57.72C45.6901 56.02 46.0301 54.53 46.7101 53.25C47.4101 51.95 48.3801 50.95 49.6201 50.25C50.8801 49.55 52.3201 49.2 53.9401 49.2C55.5001 49.2 56.8901 49.54 58.1101 50.22C59.3301 50.9 60.2801 51.86 60.9601 53.1C61.6401 54.32 61.9801 55.73 61.9801 57.33ZM58.4101 56.25C58.3901 54.99 57.9401 53.98 57.0601 53.22C56.1801 52.46 55.0901 52.08 53.7901 52.08C52.6101 52.08 51.6001 52.46 50.7601 53.22C49.9201 53.96 49.4201 54.97 49.2601 56.25H58.4101ZM72.2157 66.21C70.8157 66.21 69.5557 65.97 68.4357 65.49C67.3157 64.99 66.4357 64.29 65.7957 63.39C65.1557 62.49 64.8357 61.44 64.8357 60.24H68.4957C68.5757 61.14 68.9257 61.88 69.5457 62.46C70.1857 63.04 71.0757 63.33 72.2157 63.33C73.3957 63.33 74.3157 63.05 74.9757 62.49C75.6357 61.91 75.9657 61.17 75.9657 60.27C75.9657 59.57 75.7557 59 75.3357 58.56C74.9357 58.12 74.4257 57.78 73.8057 57.54C73.2057 57.3 72.3657 57.04 71.2857 56.76C69.9257 56.4 68.8157 56.04 67.9557 55.68C67.1157 55.3 66.3957 54.72 65.7957 53.94C65.1957 53.16 64.8957 52.12 64.8957 50.82C64.8957 49.62 65.1957 48.57 65.7957 47.67C66.3957 46.77 67.2357 46.08 68.3157 45.6C69.3957 45.12 70.6457 44.88 72.0657 44.88C74.0857 44.88 75.7357 45.39 77.0157 46.41C78.3157 47.41 79.0357 48.79 79.1757 50.55H75.3957C75.3357 49.79 74.9757 49.14 74.3157 48.6C73.6557 48.06 72.7857 47.79 71.7057 47.79C70.7257 47.79 69.9257 48.04 69.3057 48.54C68.6857 49.04 68.3757 49.76 68.3757 50.7C68.3757 51.34 68.5657 51.87 68.9457 52.29C69.3457 52.69 69.8457 53.01 70.4457 53.25C71.0457 53.49 71.8657 53.75 72.9057 54.03C74.2857 54.41 75.4057 54.79 76.2657 55.17C77.1457 55.55 77.8857 56.14 78.4857 56.94C79.1057 57.72 79.4157 58.77 79.4157 60.09C79.4157 61.15 79.1257 62.15 78.5457 63.09C77.9857 64.03 77.1557 64.79 76.0557 65.37C74.9757 65.93 73.6957 66.21 72.2157 66.21ZM98.3312 49.47L88.1912 73.77H84.6512L88.0112 65.73L81.5012 49.47H85.3112L89.9612 62.07L94.7912 49.47H98.3312ZM106.912 66.27C105.612 66.27 104.442 66.04 103.402 65.58C102.382 65.1 101.572 64.46 100.972 63.66C100.372 62.84 100.052 61.93 100.012 60.93H103.552C103.612 61.63 103.942 62.22 104.542 62.7C105.162 63.16 105.932 63.39 106.852 63.39C107.812 63.39 108.552 63.21 109.072 62.85C109.612 62.47 109.882 61.99 109.882 61.41C109.882 60.79 109.582 60.33 108.982 60.03C108.402 59.73 107.472 59.4 106.192 59.04C104.952 58.7 103.942 58.37 103.162 58.05C102.382 57.73 101.702 57.24 101.122 56.58C100.562 55.92 100.282 55.05 100.282 53.97C100.282 53.09 100.542 52.29 101.062 51.57C101.582 50.83 102.322 50.25 103.282 49.83C104.262 49.41 105.382 49.2 106.642 49.2C108.522 49.2 110.032 49.68 111.172 50.64C112.332 51.58 112.952 52.87 113.032 54.51H109.612C109.552 53.77 109.252 53.18 108.712 52.74C108.172 52.3 107.442 52.08 106.522 52.08C105.622 52.08 104.932 52.25 104.452 52.59C103.972 52.93 103.732 53.38 103.732 53.94C103.732 54.38 103.892 54.75 104.212 55.05C104.532 55.35 104.922 55.59 105.382 55.77C105.842 55.93 106.522 56.14 107.422 56.4C108.622 56.72 109.602 57.05 110.362 57.39C111.142 57.71 111.812 58.19 112.372 58.83C112.932 59.47 113.222 60.32 113.242 61.38C113.242 62.32 112.982 63.16 112.462 63.9C111.942 64.64 111.202 65.22 110.242 65.64C109.302 66.06 108.192 66.27 106.912 66.27Z" fill="white"/>
</svg>
